<svg id="svg3038"
    xmlns="http://www.w3.org/2000/svg" viewBox="0 30 254.98 190">
    <path d="M65.93,28.85a67.44,67.44,0,0,0-52,36.52c-5,9.94-6.77,17.82-6.77,29.7,0,6.27.22,9.88,1,13.32A66.38,66.38,0,0,0,26.47,142a66.88,66.88,0,0,0,35,18.6c5.05,1,18.82,1,23.87,0A68.29,68.29,0,0,0,128.65,132c2.83-4.33,6.5-11.26,7.11-13.65.22-.94.72-1.11,3.77-1.11H143l8.1,8c4.88,4.83,8.66,8.16,9.6,8.38,2.83.72,4.44-.28,11.32-7.1l6.83-6.72,6.83,6.72c3.94,3.94,7.44,6.88,8.32,7.1,2.83.72,4.44-.28,11.33-7.1l6.82-6.72,6.83,6.72c3.94,3.94,7.44,6.88,8.32,7.1a5.73,5.73,0,0,0,4.94-.94c.84-.67,26.7-36.58,28.87-40.13a7.5,7.5,0,0,0,1-3.16c0-2-12.32-20.59-14.2-21.48-1-.45-16.6-.61-57.67-.61H134l-2.28-4.22A66.8,66.8,0,0,0,83.42,29.24,85,85,0,0,0,65.93,28.85Zm21.54,12.6a56.19,56.19,0,0,1,32,22.65c.94,1.44,2.77,4.77,4,7.38,3.72,7.77-3.89,6.94,62.05,6.94h57l3.67,5.49,3.66,5.5-10.6,14.93c-5.83,8.16-10.71,15-10.83,15.09s-3.1-2.66-6.71-6.16c-6.61-6.55-8.22-7.55-11-6.82-.88.22-4.38,3.16-8.32,7.1l-6.83,6.72-6.82-6.72c-6.89-6.83-8.5-7.83-11.33-7.1-.89.22-4.38,3.16-8.38,7.1l-6.77,6.72-6.55-6.44a77.32,77.32,0,0,0-7.71-7c-.73-.39-4.44-.61-9.16-.61-10.05,0-10.82.39-12.66,5.94a55.48,55.48,0,0,1-28.58,32.63c-8.71,4.22-14.15,5.5-23.87,5.55-8.77,0-13.87-.94-20.81-3.77A55.94,55.94,0,0,1,19.26,107c-1.5-6.44-1.45-18.31.16-24.7a56,56,0,0,1,36.8-39.9A56.84,56.84,0,0,1,87.47,41.45Z" transform="translate(-7.16 22.3)" style="fill:#010101"/>
    <circle cx="43.99" cy="117.26" r="15.48" style="fill:#fff;stroke:#010101;stroke-miterlimit:10;stroke-width:12.765558136735741px"/>
    <text transform="translate(117.99 211.21)" style="font-size:248.4578094482422px;fill:#f4971b;font-family:SegoeUI-SemiboldItalic, Segoe UI;font-weight:600;font-style:italic">?</text>
</svg>