<svg id="svg3038"
    xmlns="http://www.w3.org/2000/svg" viewBox="0 -15 255.2 190">
    <circle cx="27.6" cy="41.67" r="9.71" style="fill:#fff;stroke:#010101;stroke-miterlimit:10;stroke-width:8.010657399464758px"/>
    <path d="M43.93,14.83A42.3,42.3,0,0,0,11.3,37.74C8.16,44,7.05,48.92,7.05,56.38a37.63,37.63,0,0,0,.62,8.36A42.5,42.5,0,0,0,41.15,97.51a59.52,59.52,0,0,0,15,0A42.85,42.85,0,0,0,83.29,79.57,46.33,46.33,0,0,0,87.75,71c.14-.6.45-.7,2.36-.7h2.2l5.08,5c3.07,3,5.44,5.12,6,5.26,1.78.46,2.79-.17,7.1-4.45l4.29-4.22,4.28,4.22c2.48,2.47,4.67,4.31,5.23,4.45,1.77.46,2.78-.17,7.1-4.45l4.29-4.22L140,76.13c2.47,2.47,4.67,4.31,5.22,4.45a3.6,3.6,0,0,0,3.1-.59c.53-.42,16.76-22.95,18.11-25.18a4.65,4.65,0,0,0,.63-2c0-1.25-7.73-12.92-8.91-13.47-.63-.28-10.42-.39-36.19-.39H86.67l-1.43-2.64A41.91,41.91,0,0,0,54.9,15.07,53,53,0,0,0,43.93,14.83Zm13.52,7.9A35.3,35.3,0,0,1,77.51,36.94c.59.91,1.74,3,2.54,4.63,2.33,4.88-2.44,4.36,38.94,4.36h35.77l2.3,3.45,2.29,3.44-6.65,9.37c-3.65,5.12-6.72,9.41-6.79,9.48a42.75,42.75,0,0,1-4.21-3.87c-4.15-4.11-5.16-4.74-6.93-4.28-.56.14-2.76,2-5.23,4.46l-4.28,4.21L121,68c-4.32-4.29-5.33-4.92-7.1-4.46-.56.14-2.75,2-5.26,4.46l-4.25,4.21-4.11-4a47.86,47.86,0,0,0-4.84-4.42,23.74,23.74,0,0,0-5.75-.39c-6.3,0-6.79.25-7.94,3.73A34.82,34.82,0,0,1,63.78,87.55a29.73,29.73,0,0,1-15,3.48,30.29,30.29,0,0,1-13.06-2.37A35.09,35.09,0,0,1,14.64,63.87a41.43,41.43,0,0,1,.1-15.5,35.14,35.14,0,0,1,23.1-25A35.75,35.75,0,0,1,57.45,22.73Z" transform="translate(-7.05 -14.65)" style="fill:#010101"/>
    <circle cx="227.59" cy="125" r="9.71" style="fill:none;stroke:#f4971b;stroke-miterlimit:10;stroke-width:8.010657399464758px"/>
    <path d="M225.36,181.13A42.26,42.26,0,0,0,258,158.22c3.14-6.24,4.25-11.18,4.25-18.64a37.63,37.63,0,0,0-.62-8.36,42.51,42.51,0,0,0-33.47-32.77,59.6,59.6,0,0,0-15,0A42.85,42.85,0,0,0,186,116.39a45.3,45.3,0,0,0-4.45,8.57c-.14.59-.46.69-2.37.69H177l-5.08-5c-3.07-3-5.44-5.12-6-5.26-1.77-.46-2.78.17-7.1,4.46l-4.29,4.21-4.28-4.21c-2.47-2.48-4.67-4.32-5.23-4.46-1.77-.46-2.78.17-7.1,4.46l-4.28,4.21-4.29-4.21c-2.47-2.48-4.67-4.32-5.22-4.46a3.6,3.6,0,0,0-3.1.59c-.52.42-16.76,22.95-18.11,25.18a4.65,4.65,0,0,0-.63,2c0,1.25,7.73,12.92,8.92,13.47.62.28,10.41.39,36.18.39h35.28l1.43,2.65a41.92,41.92,0,0,0,30.34,21.24A53,53,0,0,0,225.36,181.13Zm-13.51-7.9A35.29,35.29,0,0,1,191.78,159c-.59-.91-1.74-3-2.54-4.63-2.33-4.88,2.44-4.36-38.94-4.36H114.53l-2.29-3.45-2.3-3.44,6.65-9.37c3.66-5.12,6.72-9.41,6.79-9.48a45.1,45.1,0,0,1,4.22,3.87c4.14,4.11,5.15,4.74,6.93,4.28.55-.14,2.75-2,5.22-4.45l4.28-4.22,4.29,4.22c4.32,4.28,5.33,4.91,7.1,4.45.56-.14,2.75-2,5.26-4.45l4.25-4.22,4.11,4a46.57,46.57,0,0,0,4.84,4.42,23.8,23.8,0,0,0,5.75.39c6.3,0,6.79-.25,7.94-3.73a34.85,34.85,0,0,1,17.94-20.48,29.75,29.75,0,0,1,15-3.48,30.29,30.29,0,0,1,13.06,2.37,35.09,35.09,0,0,1,21.11,24.8,41.38,41.38,0,0,1-.1,15.49,35.12,35.12,0,0,1-23.1,25A35.62,35.62,0,0,1,211.85,173.23Z" transform="translate(-7.05 -14.65)" style="fill:#f4971b"/>
    <path d="M248.48,72.07C248.2,41.48,218,19.43,178,35.41" transform="translate(-7.05 -14.65)" style="fill:none;stroke:#f4971b;stroke-linecap:round;stroke-miterlimit:10;stroke-width:2.7863156172051333px"/>
    <polygon points="252.23 50.95 241.43 53.95 231.77 48.26 238.81 73.86 252.23 50.95" style="fill:#f4971b"/>
    <path d="M26.9,124.34C27.18,154.93,57.36,177,97.37,161" transform="translate(-7.05 -14.65)" style="fill:none;stroke:#000;stroke-linecap:round;stroke-miterlimit:10;stroke-width:2.7863156172051333px"/>
    <polygon points="9.06 116.17 19.86 113.17 29.52 118.86 22.48 93.27 9.06 116.17"/>
</svg>